# xmcd
#
# Track frame offsets:
#	150
#	12243
#	27545
#	41405
#	59860
#	78526
#
# Disc length: 1288 seconds
#
# Revision: 1
# Processed by: cddbd v1.5.2PL0 Copyright (c) Steve Scherf et al.
# Submitted via: audiograbber 1.83.01
#
DISCID=4c050606
DTITLE=Various Artist - Universal Music Country Sampler
DYEAR=2007
DGENRE=Country
TTITLE0=Ryan Adams - Two
TTITLE1=Ryan Adams - Halloweenhead
TTITLE2=The McClymonts - Baby's gone Home
TTITLE3=Bon Jovi - (You Want To) Make a Memory
TTITLE4=George Strait - Wrapped
TTITLE5=Vince Gill and Sheryl Crow - What you give away
EXTD=
EXTT0=
EXTT1=
EXTT2=
EXTT3=
EXTT4=
EXTT5=
PLAYORDER=
